# xmcd
#
# Track frame offsets:
#	150
#	11693
#	23919
#	36335
#	48826
#	60279
#	74163
#	87141
#	100070
#	109670
#	126041
#	139653
#
# Disc length: 2038 seconds
#
# Revision: 0
# Processed by: cddbd v1.4PL0 Copyright (c) Steve Scherf et al.
# Submitted via: audiograbber 1.81.02
#
DISCID=9a07f40c
DTITLE=Various Artist - O Melhor Do Bang Bang À Italiana
DYEAR=1900
DGENRE=Pop
TTITLE0=One Silver Dollar (Maurice Renet E Sua Orquestra)
TTITLE1=The Good, The Bad And The Ugly (Hugo Montenegro)
TTITLE2=Per Qualche Dollaro In Piu (Ennio Morricone E Sua Orquestra)
TTITLE3=I Giorni Dell Ira (Riz Ortolani E Sua Orquestra)
TTITLE4=All Ombra Di Una Colt (Willy Brezza E Sua Orquestra)
TTITLE5=Theme From A Few Dollars More (Maurice Renet E Sua Orquestra)
TTITLE6=Johnny Guitar (Nico Fidenco)
TTITLE7=Titoli (Ennio Morricone, Sua Orquestra E Coro)
TTITLE8=Hang Em High (Hugo Montenegro E Sua Orquestra)
TTITLE9=C Era Una Volta Il West (Ennio Morricone I Canrori Moderni Di Alessandr
TTITLE9=oni)
TTITLE10=DJango (Maurice Renet E Sua Orquestra)
TTITLE11=Trinity - Annibale E Orquestra De Gianfranco Plenizio 
EXTD=
EXTT0=
EXTT1=
EXTT2=
EXTT3=
EXTT4=
EXTT5=
EXTT6=
EXTT7=
EXTT8=
EXTT9=
EXTT10=
EXTT11=
PLAYORDER=
